<?xml version="1.0" encoding="UTF-8" standalone="no"?>
<!-- Created with Inkscape (http://www.inkscape.org/) -->

<svg
   version="1.1"
   id="svg1"
   width="666.66669"
   height="666.66669"
   viewBox="0 0 666.66669 666.66669"
   sodipodi:docname="Pxm_Logo_FILLED_Gradient (1).ai"
   xmlns:inkscape="http://www.inkscape.org/namespaces/inkscape"
   xmlns:sodipodi="http://sodipodi.sourceforge.net/DTD/sodipodi-0.dtd"
   xmlns="http://www.w3.org/2000/svg"
   xmlns:svg="http://www.w3.org/2000/svg">
  <defs
     id="defs1">
    <linearGradient
       x1="0"
       y1="0"
       x2="1"
       y2="0"
       gradientUnits="userSpaceOnUse"
       gradientTransform="matrix(269.8602,-222.53278,-222.53278,-269.8602,121.44405,371.02319)"
       spreadMethod="pad"
       id="linearGradient2">
      <stop
         style="stop-opacity:1;stop-color:#94bee6"
         offset="0"
         id="stop1" />
      <stop
         style="stop-opacity:1;stop-color:#e0bbda"
         offset="1"
         id="stop2" />
    </linearGradient>
  </defs>
  <sodipodi:namedview
     id="namedview1"
     pagecolor="#ffffff"
     bordercolor="#000000"
     borderopacity="0.25"
     inkscape:showpageshadow="2"
     inkscape:pageopacity="0.0"
     inkscape:pagecheckerboard="0"
     inkscape:deskcolor="#d1d1d1">
    <inkscape:page
       x="0"
       y="0"
       inkscape:label="1"
       id="page1"
       width="666.66669"
       height="666.66669"
       margin="110.2244 129.812 83.073334 122.37186"
       bleed="0" />
  </sodipodi:namedview>
  <g
     id="layer-MC0"
     inkscape:groupmode="layer"
     inkscape:label="Calque 1">
    <path
       id="path2"
       d="m 225.759,432.937 -0.164,-0.077 c -1.376,-0.643 -2.724,-1.348 -4.037,-2.113 v 0 L 119.751,371.449 c -1.504,-0.877 -2.967,-1.823 -4.384,-2.834 v 0 C 100.564,358.043 91.779,340.974 91.779,322.784 v 0 -131.6 c 0,-3.999 1.914,-7.758 5.148,-10.11 v 0 l 26.665,-19.393 c 4.915,-3.574 11.691,-3.096 16.055,1.136 v 0 c 2.43,2.356 3.8,5.596 3.799,8.981 v 0 l -0.062,128.569 c -0.004,8.936 2.715,17.661 7.794,25.012 v 0 c 3.791,5.487 8.782,10.04 14.593,13.314 v 0 l 67.373,37.953 c 4.258,2.398 9.06,3.662 13.946,3.67 v 0 h 0.001 c 4.928,0.008 9.773,-1.261 14.064,-3.684 v 0 l 67.082,-37.877 c 5.856,-3.305 10.877,-7.907 14.681,-13.452 v 0 c 5.04,-7.347 7.736,-16.049 7.733,-24.959 v 0 l -0.03,-75.652 c -0.004,-9.196 -2.786,-18.177 -7.983,-25.764 v 0 c -3.64,-5.314 -8.364,-9.797 -13.86,-13.153 v 0 l -72.813,-44.468 c -0.887,-0.542 -1.906,-0.83 -2.946,-0.831 v 0 c -3.137,-0.006 -5.682,2.536 -5.682,5.672 v 0 c 0.001,2.888 0.001,5.897 -0.002,6.41 v 0 c -0.032,6.574 -0.019,23.837 -0.009,34.001 v 0 c 0.005,5.019 1.91,9.831 5.331,13.503 v 0 c 1.294,1.389 2.781,2.586 4.415,3.553 v 0 l 31.712,18.772 c 2.954,1.749 5.436,4.192 7.232,7.118 v 0 c 2.038,3.32 3.116,7.139 3.116,11.033 v 0 43.179 c 0,3.796 -1.051,7.519 -3.037,10.754 v 0 c -1.845,3.005 -4.431,5.485 -7.51,7.202 v 0 l -32.061,17.876 c -1.266,0.705 -2.608,1.267 -4,1.673 v 0 c -3.394,0.989 -6.994,1.028 -10.409,0.113 v 0 l -0.15,-0.039 c -1.545,-0.415 -3.033,-1.019 -4.43,-1.801 v 0 l -31.87,-17.826 c -3.069,-1.716 -5.647,-4.191 -7.489,-7.187 v 0 c -1.991,-3.242 -3.046,-6.973 -3.046,-10.778 v 0 -155.076 c 0,-4.123 0.682,-8.218 2.019,-12.119 v 0 c 2.486,-7.256 7.145,-13.572 13.343,-18.09 v 0 l 9.418,-6.866 c 2.4,-1.75 4.962,-3.265 7.653,-4.523 v 0 c 12.52,-5.858 27.004,-5.813 39.488,0.122 v 0 l 1.286,0.611 c 1.624,0.772 3.203,1.639 4.727,2.594 v 0 l 102.344,64.206 c 0.976,0.612 1.933,1.253 2.87,1.922 v 0 c 15.286,10.906 24.359,28.526 24.359,47.303 v 0 l 0.003,118.996 c 0.001,18.19 -8.785,35.258 -23.587,45.829 v 0 c -1.423,1.016 -2.893,1.966 -4.404,2.845 v 0 l -102.048,59.377 c -1.216,0.708 -2.462,1.364 -3.732,1.968 v 0 c -6.864,3.26 -14.28,4.892 -21.697,4.892 v 0 c -7.313,0 -14.627,-1.586 -21.413,-4.758"
       transform="matrix(1.3333333,0,0,-1.3333333,0,666.66667)"
       style="fill:url(#linearGradient2);stroke:none" />
  </g>
</svg>
